<svg xmlns="http://www.w3.org/2000/svg" viewBox="0 0 1278.71 800"><defs><style>.cls-1,.cls-2{fill:#f79524;}.cls-2{fill-rule:evenodd;}</style></defs><title>lb-infographic</title><g id="Layer_2" data-name="Layer 2"><g id="Layer_1-2" data-name="Layer 1"><path class="cls-1" d="M440.58,81.43C407,44.28,347.62,0,255.48,0S104,44.28,70.39,81.43C20.67,136.4-5.86,213.36,1.09,282.28,11.79,388,97.52,456.19,119.23,471.86v71.44c0,59.87,37.15,87.16,71.66,87.16H320.06c28.91,0,71.66-27.72,71.66-87.16V471.86C413.44,456.19,499.17,388,509.87,282.27,516.82,213.36,490.28,136.4,440.58,81.43ZM63.07,179.82c-13.71,37.85-11.24,89.39-21.29,85.76s-12.29-51,1.42-88.9,48.52-77.88,58.56-74.24S76.79,142,63.07,179.82ZM127.91,77.53c-5.2-6,.15-15.19,5.93-20.18s16.29-9.26,21.49-3.24-7.74,6.08-13.52,11.08S133.11,83.56,127.91,77.53ZM374.14,369.81l-6.38,56.08L297.6,630l-14.66,0,77.33-211.83-5.8-44.67-38.19-.2v-75L253,365.85l-60.71-66.64v70.3l-34.31-3-.65,54.32,70.43,209.38H216l-69.5-209.38-9.68-92.36,33.42,5V237l82.7,91.5L339.17,237l.88,102.93,34.09-6.16Z"/><path d="M333.1,684.18a17.92,17.92,0,0,1-17.9,17.92H195.78a17.92,17.92,0,0,1-17.91-17.92h0a17.9,17.9,0,0,1,17.91-17.91H315.2a17.89,17.89,0,0,1,17.9,17.91Z"/><path d="M333.1,735.52a17.91,17.91,0,0,1-17.9,17.92H195.78a17.91,17.91,0,0,1-17.91-17.92h0a17.91,17.91,0,0,1,17.91-17.91H315.2a17.9,17.9,0,0,1,17.9,17.91Z"/><path d="M315,786.28A13.7,13.7,0,0,1,301.25,800H209.71A13.71,13.71,0,0,1,196,786.28h0a13.71,13.71,0,0,1,13.71-13.72h91.54A13.7,13.7,0,0,1,315,786.28Z"/><polygon class="cls-1" points="756.78 576.75 780.88 607.18 830.03 542.12 819.18 531.23 780.88 581.85 768.67 565 756.78 576.75"/><path d="M905.69,582.57a15.27,15.27,0,0,1-3.63,1.62,14.37,14.37,0,0,1-4.15.58,13.77,13.77,0,0,1-6.12-1.34,15.46,15.46,0,0,1-4.71-3.5,15.65,15.65,0,0,1-3-5,15.89,15.89,0,0,1-1.08-5.75,15.44,15.44,0,0,1,1.15-5.88,16.24,16.24,0,0,1,3.16-5,15.07,15.07,0,0,1,4.78-3.44,14.2,14.2,0,0,1,6-1.28,13.48,13.48,0,0,1,6.08,1.36,15.18,15.18,0,0,1,4.69,3.57,16.44,16.44,0,0,1,3,5,15.8,15.8,0,0,1,1.08,5.71,15.81,15.81,0,0,1-4,10.55l4.2,4.72h-5.62Zm-7.74-3.07a8.13,8.13,0,0,0,2.18-.28,8.67,8.67,0,0,0,1.88-.76l-4.67-5.28H903l2.12,2.38a12.07,12.07,0,0,0,1.19-10.21,10.61,10.61,0,0,0-1.77-3.29,8.72,8.72,0,0,0-2.81-2.29,8,8,0,0,0-3.74-.87,8.16,8.16,0,0,0-3.85.89,8.43,8.43,0,0,0-2.81,2.36,10.77,10.77,0,0,0-1.71,3.31,12.41,12.41,0,0,0,0,7.59,10.27,10.27,0,0,0,1.75,3.29,8.69,8.69,0,0,0,2.81,2.29A8.08,8.08,0,0,0,897.95,579.5Z"/><path d="M930.43,579.5a6.85,6.85,0,0,0,3.57-.87,7,7,0,0,0,2.33-2.25,9.29,9.29,0,0,0,1.26-3.18,18.4,18.4,0,0,0,.37-3.7V553.85h5.93v15.66a22.39,22.39,0,0,1-.76,5.93,13.6,13.6,0,0,1-2.38,4.85,11.4,11.4,0,0,1-4.17,3.29,14.11,14.11,0,0,1-6.1,1.21,14,14,0,0,1-6.25-1.28,11.65,11.65,0,0,1-4.17-3.37,13.47,13.47,0,0,1-2.31-4.87,23,23,0,0,1-.71-5.75V553.85h6v15.66a18.56,18.56,0,0,0,.37,3.74,9.28,9.28,0,0,0,1.25,3.18,6.51,6.51,0,0,0,5.82,3.07Z"/><path d="M957.34,553.85h5.28l11.68,30.71h-6.14l-2.86-7.66H954.57l-2.81,7.66h-6.14Zm6.88,18.86L960,560.64l-4.41,12.07Z"/><path d="M977.67,584.56V553.85h6v25.48h15.66v5.23Z"/><path d="M1002.93,584.56V553.85h6v30.71Z"/><path d="M1038.27,559.08h-9.82v25.48h-5.93V559.08h-9.82v-5.23h25.56Z"/><path d="M1045.53,553.85l7.57,14.79,7.7-14.79h6.44l-11.16,20v10.73h-5.93V573.75L1039,553.85Z"/><path class="cls-1" d="M778.51,208.4l-20.16,20.16v0l20.17-20.17Zm10.43,0h0l.34.45.07-.07Z"/><path class="cls-1" d="M798.85,237.78l-.6.6,17.46,17.46a4.6,4.6,0,0,1,1.34,2.56,3.92,3.92,0,0,1-3.92,3.92,4.5,4.5,0,0,1-2.56-1.34L809,259.44l-.05,0-16.5-16.51-1.22,1.22,16.5,16.5.05.05a4.54,4.54,0,0,1,1.29,2.53,3.91,3.91,0,0,1-3.9,3.92,4.66,4.66,0,0,1-2.58-1.34l-3.14-3.14,0,0-13.75-13.75-.62.6-.6.6,13.75,13.75v0a4.54,4.54,0,0,1,1.34,2.56,3.91,3.91,0,0,1-3.9,3.92,4.65,4.65,0,0,1-2.58-1.34l-6.55-6.55-1.22-1.22L780.17,256,779,254.81l-5.14-5.14-1.22-1.22-7.89-7.89v-4.78l-6.36-6.36v-.86l20.17-20.17h8.75l-8.13,8.08a6.21,6.21,0,0,0-1.84,3.78,5.64,5.64,0,0,0,5.62,5.64,6.26,6.26,0,0,0,3.8-1.86l7.7-7.7H798v9l17.87,17.87,1.46,1.46,1.6,1.6a4.65,4.65,0,0,1,1.34,2.56,3.92,3.92,0,0,1-3.92,3.92,4.63,4.63,0,0,1-2.49-1.25l-.07-.07-14.28-14.28Z"/><path class="cls-1" d="M788.94,208.4h0m-11.1-1.72-21.17,21.17v0l21.19-21.19Z"/><path class="cls-1" d="M771.32,249.61a3.59,3.59,0,0,1-1.91.79,3.91,3.91,0,0,1-3.92-3.9,3.67,3.67,0,0,1,.79-1.91Z"/><path class="cls-1" d="M777.68,256a3.7,3.7,0,0,1-1.91.77,3.91,3.91,0,0,1-3.92-3.9,3.67,3.67,0,0,1,.79-1.91Z"/><path class="cls-1" d="M784,262.32a3.53,3.53,0,0,1-1.91.79,3.92,3.92,0,0,1-3.92-3.9,3.67,3.67,0,0,1,.79-1.91Z"/><path class="cls-1" d="M790.4,268.7a3.64,3.64,0,0,1-1.91.77,3.92,3.92,0,0,1-3.92-3.9,3.67,3.67,0,0,1,.79-1.91Z"/><path class="cls-1" d="M788.94,208.4h19.28l21.33,21.26L825,234.21v3.18l-5.86,5.86h-.89l-18.58-18.58V214.62h-6l-8.2,8.21a4.64,4.64,0,0,1-2.58,1.34,3.92,3.92,0,0,1-3.9-3.92,4.59,4.59,0,0,1,1.32-2.56"/><path class="cls-1" d="M753.81,223.74a1.48,1.48,0,0,1-3,0,1.48,1.48,0,0,1,3,0Z"/><path class="cls-1" d="M773.13,194,744,223.14l8.66,8.66,29.09-29.09Zm-20.79,32.89a3.2,3.2,0,1,1,3.2-3.2A3.2,3.2,0,0,1,752.33,226.94Z"/><path class="cls-1" d="M778.51,208.4l-20.16,20.16v0l20.17-20.17Z"/><path class="cls-1" d="M836.18,223.74a1.48,1.48,0,1,1-1.48-1.48A1.48,1.48,0,0,1,836.18,223.74Z"/><path class="cls-1" d="M813.68,194,805,202.71,832,229.65l2.15,2.15,8.66-8.66Zm21,32.89a3.2,3.2,0,1,1,3.2-3.2A3.19,3.19,0,0,1,834.7,226.94Z"/><path class="cls-1" d="M836.18,223.74a1.48,1.48,0,1,1-1.48-1.48A1.48,1.48,0,0,1,836.18,223.74Z"/><path class="cls-1" d="M753.81,223.74a1.48,1.48,0,0,1-3,0,1.48,1.48,0,0,1,3,0Z"/><path d="M884.8,247.52V216.81h6v30.71Z"/><path d="M903.14,227.84v19.68h-6V216.81h4.63l16,20.16V216.85h6v30.67h-4.84Z"/><path d="M953.14,222h-9.82v25.48h-5.93V222h-9.82v-5.23h25.56Z"/><path d="M978.27,242.28v5.23H956.95V216.81h20.94V222h-15v7.4h12.93v4.84H962.91v8Z"/><path d="M1003.62,244.06a11.74,11.74,0,0,1-8.56,3.68,13.57,13.57,0,0,1-5.69-1.21,14.39,14.39,0,0,1-4.63-3.33,15.89,15.89,0,0,1-3.11-5,16.6,16.6,0,0,1-1.15-6.21,15.6,15.6,0,0,1,4.3-10.84,15.14,15.14,0,0,1,4.74-3.33,14.21,14.21,0,0,1,5.93-1.23,14.4,14.4,0,0,1,7.42,1.82,11.76,11.76,0,0,1,4.65,4.89l-4.46,3.29a8.27,8.27,0,0,0-3.27-3.5,9,9,0,0,0-4.56-1.21,7.79,7.79,0,0,0-3.57.82,8.36,8.36,0,0,0-2.77,2.25,10.62,10.62,0,0,0-1.77,3.29,12.24,12.24,0,0,0-.63,3.94,11.62,11.62,0,0,0,.69,4,10.3,10.3,0,0,0,1.9,3.27,8.89,8.89,0,0,0,2.88,2.18,8.22,8.22,0,0,0,3.61.8q4.45,0,8-4.2V236.1h-6.19v-4.37h11.12v15.79h-4.93Z"/><path d="M1013.65,247.52V216.81h13.58a8.72,8.72,0,0,1,3.91.89,10.13,10.13,0,0,1,3.09,2.34,11,11,0,0,1,2,3.29,9.88,9.88,0,0,1,.74,3.7,10.21,10.21,0,0,1-1.49,5.43,8.56,8.56,0,0,1-4,3.53l7,11.55h-6.7l-6.27-10.29h-5.88v10.29Zm6-15.53h7.48a3.16,3.16,0,0,0,1.54-.39,3.93,3.93,0,0,0,1.23-1.06,5.28,5.28,0,0,0,.82-1.58,6.13,6.13,0,0,0,.3-1.95,5.55,5.55,0,0,0-.35-2,5.21,5.21,0,0,0-.93-1.58,4.21,4.21,0,0,0-1.34-1,3.49,3.49,0,0,0-1.54-.37h-7.22Z"/><path d="M1042.42,247.52V216.81h6v30.71Z"/><path d="M1077.76,222h-9.82v25.48H1062V222h-9.82v-5.23h25.56Z"/><path d="M1085,216.81l7.57,14.79,7.7-14.79h6.44l-11.16,20v10.73h-5.93V236.7l-11.12-19.9Z"/><path class="cls-1" d="M793.4,353a42.87,42.87,0,1,0,42.88,42.86A42.87,42.87,0,0,0,793.4,353Zm17.15,62.67-18.87-19.11V360.28h3.44v34.87l15.4,15.6,2.47,2.51Z"/><path d="M906.12,405.94v5.23H884.8V380.46h20.94v5.23h-15v7.4H903.7v4.84H890.77v8Z"/><path d="M910.79,411.17V380.46h20.63v5.23H916.76v7.92H929v4.84h-12.2v12.72Z"/><path d="M935.62,411.17V380.46h20.63v5.23H941.59v7.92h12.2v4.84h-12.2v12.72Z"/><path d="M960.45,411.17V380.46h6v30.71Z"/><path d="M971,395.6a15.9,15.9,0,0,1,1-5.56,14.91,14.91,0,0,1,7.72-8.41,14.69,14.69,0,0,1,6.4-1.34,14,14,0,0,1,7.33,1.86A11.88,11.88,0,0,1,998,387l-4.59,3.16A7.86,7.86,0,0,0,992,388a7.38,7.38,0,0,0-1.86-1.41,8.36,8.36,0,0,0-2.08-.76,9.87,9.87,0,0,0-2.12-.24,8.05,8.05,0,0,0-3.91.91,8.61,8.61,0,0,0-2.77,2.36,10.4,10.4,0,0,0-1.67,3.29,12.45,12.45,0,0,0-.56,3.65,11.93,11.93,0,0,0,.65,3.91A10.41,10.41,0,0,0,979.5,403a9.18,9.18,0,0,0,2.85,2.29,7.8,7.8,0,0,0,3.65.87,9.61,9.61,0,0,0,2.16-.26,8.21,8.21,0,0,0,2.14-.82,8.11,8.11,0,0,0,1.88-1.45,6.69,6.69,0,0,0,1.38-2.14l4.89,2.81a9.22,9.22,0,0,1-2.1,3,13.47,13.47,0,0,1-3.07,2.23,15.66,15.66,0,0,1-3.65,1.38,16,16,0,0,1-3.81.48,13.08,13.08,0,0,1-6-1.38,15.65,15.65,0,0,1-4.69-3.61,16.75,16.75,0,0,1-3.07-5.06A15.79,15.79,0,0,1,971,395.6Z"/><path d="M1002.49,411.17V380.46h6v30.71Z"/><path d="M1036.19,405.94v5.23h-21.32V380.46h20.94v5.23h-15v7.4h12.93v4.84h-12.93v8Z"/><path d="M1046.83,391.49v19.68h-6V380.46h4.63l16,20.16V380.51h6v30.67h-4.84Z"/><path d="M1072,395.6a15.9,15.9,0,0,1,1-5.56,14.91,14.91,0,0,1,7.72-8.41,14.69,14.69,0,0,1,6.4-1.34,14,14,0,0,1,7.33,1.86,11.88,11.88,0,0,1,4.61,4.84l-4.59,3.16A7.86,7.86,0,0,0,1093,388a7.38,7.38,0,0,0-1.86-1.41,8.36,8.36,0,0,0-2.08-.76,9.87,9.87,0,0,0-2.12-.24,8.05,8.05,0,0,0-3.91.91,8.61,8.61,0,0,0-2.77,2.36,10.4,10.4,0,0,0-1.67,3.29,12.45,12.45,0,0,0-.56,3.65,11.93,11.93,0,0,0,.65,3.91,10.41,10.41,0,0,0,1.84,3.31,9.18,9.18,0,0,0,2.85,2.29,7.8,7.8,0,0,0,3.65.87,9.61,9.61,0,0,0,2.16-.26,8.21,8.21,0,0,0,2.14-.82,8.11,8.11,0,0,0,1.88-1.45,6.69,6.69,0,0,0,1.38-2.14l4.89,2.81a9.22,9.22,0,0,1-2.1,3,13.47,13.47,0,0,1-3.07,2.23,15.66,15.66,0,0,1-3.65,1.38,16,16,0,0,1-3.81.48,13.08,13.08,0,0,1-6-1.38,15.65,15.65,0,0,1-4.69-3.61,16.75,16.75,0,0,1-3.07-5.06A15.79,15.79,0,0,1,1072,395.6Z"/><path d="M1106.35,380.46l7.57,14.79,7.7-14.79h6.44l-11.16,20v10.73H1111V400.36l-11.12-19.9Z"/><path class="cls-1" d="M815.19,710V698.57a4.32,4.32,0,0,0-3.52-4.42H775a4.32,4.32,0,0,0-3.52,4.42V710H747.38v65.61h15.14V735H766v40.59H821V735h3.44v40.59h15V710Zm-38.65,0v-7.73a2.48,2.48,0,0,1,2.72-2.72H807.4a2.48,2.48,0,0,1,2.72,2.72V710Z"/><path d="M884.8,750.18V719.47h13a8.73,8.73,0,0,1,3.91.89,10.13,10.13,0,0,1,3.09,2.34,11,11,0,0,1,2,3.29,9.89,9.89,0,0,1,.74,3.7,10.65,10.65,0,0,1-.69,3.78,10.5,10.5,0,0,1-1.95,3.27,9.57,9.57,0,0,1-3,2.29,8.76,8.76,0,0,1-3.89.87h-7.27v10.29Zm6-15.53h6.92a3.42,3.42,0,0,0,2.75-1.34,5.55,5.55,0,0,0,1.1-3.63,6,6,0,0,0-.35-2.1,5.13,5.13,0,0,0-.91-1.58,3.62,3.62,0,0,0-1.32-1,3.86,3.86,0,0,0-1.54-.32h-6.66Z"/><path d="M911.74,750.18V719.47h13.58a8.73,8.73,0,0,1,3.91.89,10.13,10.13,0,0,1,3.09,2.34,11,11,0,0,1,2,3.29,9.89,9.89,0,0,1,.74,3.7,10.21,10.21,0,0,1-1.49,5.43,8.55,8.55,0,0,1-4,3.53l7,11.55h-6.7l-6.27-10.29h-5.88v10.29Zm6-15.53h7.48a3.16,3.16,0,0,0,1.54-.39,3.92,3.92,0,0,0,1.23-1.06,5.29,5.29,0,0,0,.82-1.58,6.13,6.13,0,0,0,.3-1.95,5.55,5.55,0,0,0-.35-2,5.21,5.21,0,0,0-.93-1.58,4.2,4.2,0,0,0-1.34-1,3.49,3.49,0,0,0-1.54-.37h-7.22Z"/><path d="M953.61,750.4a13.94,13.94,0,0,1-6.12-1.32,15,15,0,0,1-4.71-3.5,16.25,16.25,0,0,1-4.13-10.75,15.44,15.44,0,0,1,1.15-5.88,16.24,16.24,0,0,1,3.16-5,15.07,15.07,0,0,1,4.78-3.44,14.2,14.2,0,0,1,6-1.28,13.48,13.48,0,0,1,6.08,1.36,15.18,15.18,0,0,1,4.69,3.57,16.44,16.44,0,0,1,3,5,15.8,15.8,0,0,1,1.08,5.71,15.54,15.54,0,0,1-1.12,5.86,15.94,15.94,0,0,1-3.11,4.93,15,15,0,0,1-4.76,3.42A14.18,14.18,0,0,1,953.61,750.4Zm-8.91-15.57a12.34,12.34,0,0,0,.61,3.85,10.27,10.27,0,0,0,1.75,3.29,8.69,8.69,0,0,0,2.81,2.29,8.71,8.71,0,0,0,7.61,0,8.7,8.7,0,0,0,2.81-2.36,10.52,10.52,0,0,0,1.73-3.31,12.3,12.3,0,0,0,.58-3.74A12,12,0,0,0,962,731a10.61,10.61,0,0,0-1.77-3.29,8.46,8.46,0,0,0-2.81-2.27,8.76,8.76,0,0,0-7.59,0A8.54,8.54,0,0,0,947,727.8a10.49,10.49,0,0,0-1.71,3.29A12.3,12.3,0,0,0,944.7,734.83Z"/><path d="M973.21,750.18V719.47h20.63v5.23H979.18v7.92h12.2v4.84h-12.2v12.72Z"/><path d="M1019.36,744.95v5.23H998V719.47H1019v5.23h-15v7.4h12.93v4.85H1004v8Z"/><path d="M1041.68,727.52a7.43,7.43,0,0,0-1.1-.82,13.49,13.49,0,0,0-1.95-1,16.81,16.81,0,0,0-2.49-.84,10.87,10.87,0,0,0-2.73-.35,6.11,6.11,0,0,0-3.68.91,3,3,0,0,0-1.21,2.55,2.63,2.63,0,0,0,.45,1.58,3.92,3.92,0,0,0,1.32,1.1,11.06,11.06,0,0,0,2.19.87q1.32.39,3,.82,2.25.61,4.09,1.3a11.09,11.09,0,0,1,3.11,1.73,7.15,7.15,0,0,1,2,2.49,8.24,8.24,0,0,1,.69,3.57,8.88,8.88,0,0,1-.93,4.22,7.8,7.8,0,0,1-2.51,2.83,10.91,10.91,0,0,1-3.63,1.58,18.25,18.25,0,0,1-4.3.5,23.12,23.12,0,0,1-6.83-1,21.08,21.08,0,0,1-6.06-2.94l2.64-5.15a8.32,8.32,0,0,0,1.41,1,21.36,21.36,0,0,0,2.4,1.26,18.64,18.64,0,0,0,3.07,1.06,13.84,13.84,0,0,0,3.46.43q4.93,0,4.93-3.16a2.6,2.6,0,0,0-.56-1.69,4.78,4.78,0,0,0-1.6-1.21,15.35,15.35,0,0,0-2.51-1l-3.29-1a27.86,27.86,0,0,1-3.83-1.32,10,10,0,0,1-2.7-1.69,6.32,6.32,0,0,1-1.62-2.25,7.78,7.78,0,0,1-.54-3,9.54,9.54,0,0,1,.87-4.15,8.39,8.39,0,0,1,2.4-3,10.87,10.87,0,0,1,3.57-1.84,14.75,14.75,0,0,1,4.37-.63,17,17,0,0,1,6,1,22.25,22.25,0,0,1,4.76,2.4Z"/><path d="M1068.2,727.52a7.43,7.43,0,0,0-1.1-.82,13.49,13.49,0,0,0-1.95-1,16.81,16.81,0,0,0-2.49-.84,10.87,10.87,0,0,0-2.73-.35,6.11,6.11,0,0,0-3.68.91A3,3,0,0,0,1055,728a2.63,2.63,0,0,0,.45,1.58,3.92,3.92,0,0,0,1.32,1.1,11.05,11.05,0,0,0,2.19.87q1.32.39,3,.82,2.25.61,4.09,1.3a11.09,11.09,0,0,1,3.11,1.73,7.15,7.15,0,0,1,2,2.49,8.24,8.24,0,0,1,.69,3.57,8.88,8.88,0,0,1-.93,4.22,7.8,7.8,0,0,1-2.51,2.83,10.91,10.91,0,0,1-3.63,1.58,18.25,18.25,0,0,1-4.3.5,23.12,23.12,0,0,1-6.83-1,21.08,21.08,0,0,1-6.06-2.94l2.64-5.15a8.32,8.32,0,0,0,1.41,1,21.36,21.36,0,0,0,2.4,1.26,18.64,18.64,0,0,0,3.07,1.06,13.84,13.84,0,0,0,3.46.43q4.93,0,4.93-3.16a2.6,2.6,0,0,0-.56-1.69,4.78,4.78,0,0,0-1.6-1.21,15.35,15.35,0,0,0-2.51-1l-3.29-1a27.86,27.86,0,0,1-3.83-1.32,10,10,0,0,1-2.7-1.69,6.32,6.32,0,0,1-1.62-2.25,7.78,7.78,0,0,1-.54-3,9.54,9.54,0,0,1,.87-4.15,8.39,8.39,0,0,1,2.4-3,10.87,10.87,0,0,1,3.57-1.84,14.75,14.75,0,0,1,4.37-.63,17,17,0,0,1,6,1,22.25,22.25,0,0,1,4.76,2.4Z"/><path d="M1076.41,750.18V719.47h6v30.71Z"/><path d="M1101.89,750.4a13.94,13.94,0,0,1-6.12-1.32,15,15,0,0,1-4.71-3.5,16.25,16.25,0,0,1-4.13-10.75,15.44,15.44,0,0,1,1.15-5.88,16.24,16.24,0,0,1,3.16-5,15.07,15.07,0,0,1,4.78-3.44,14.2,14.2,0,0,1,6-1.28,13.48,13.48,0,0,1,6.08,1.36,15.18,15.18,0,0,1,4.69,3.57,16.44,16.44,0,0,1,3,5,15.8,15.8,0,0,1,1.08,5.71,15.54,15.54,0,0,1-1.12,5.86,15.94,15.94,0,0,1-3.11,4.93,15,15,0,0,1-4.76,3.42A14.18,14.18,0,0,1,1101.89,750.4ZM1093,734.83a12.34,12.34,0,0,0,.61,3.85,10.27,10.27,0,0,0,1.75,3.29,8.69,8.69,0,0,0,2.81,2.29,8.71,8.71,0,0,0,7.61,0,8.7,8.7,0,0,0,2.81-2.36,10.52,10.52,0,0,0,1.73-3.31,12.3,12.3,0,0,0,.58-3.74,12,12,0,0,0-.63-3.85,10.61,10.61,0,0,0-1.77-3.29,8.46,8.46,0,0,0-2.81-2.27,8.76,8.76,0,0,0-7.59,0,8.54,8.54,0,0,0-2.81,2.34,10.49,10.49,0,0,0-1.71,3.29A12.3,12.3,0,0,0,1093,734.83Z"/><path d="M1127.45,730.5v19.68h-6V719.47h4.63l16,20.16V719.52h6v30.67h-4.84Z"/><path d="M1163.22,719.47h5.28l11.68,30.71H1174l-2.86-7.66h-10.73l-2.81,7.66h-6.14Zm6.88,18.86-4.24-12.07-4.41,12.07Z"/><path d="M1183.55,750.18V719.47h6v25.48h15.66v5.23Z"/><path d="M1208.81,750.18V719.47h6v30.71Z"/><path d="M1239.48,727.52a7.43,7.43,0,0,0-1.1-.82,13.49,13.49,0,0,0-1.95-1,16.81,16.81,0,0,0-2.49-.84,10.87,10.87,0,0,0-2.73-.35,6.11,6.11,0,0,0-3.68.91,3,3,0,0,0-1.21,2.55,2.63,2.63,0,0,0,.45,1.58,3.92,3.92,0,0,0,1.32,1.1,11.06,11.06,0,0,0,2.19.87q1.32.39,3,.82,2.25.61,4.09,1.3a11.09,11.09,0,0,1,3.11,1.73,7.15,7.15,0,0,1,2,2.49,8.24,8.24,0,0,1,.69,3.57,8.88,8.88,0,0,1-.93,4.22,7.8,7.8,0,0,1-2.51,2.83,10.91,10.91,0,0,1-3.63,1.58,18.25,18.25,0,0,1-4.3.5,23.12,23.12,0,0,1-6.83-1,21.08,21.08,0,0,1-6.06-2.94l2.64-5.15a8.32,8.32,0,0,0,1.41,1,21.36,21.36,0,0,0,2.4,1.26,18.64,18.64,0,0,0,3.07,1.06,13.84,13.84,0,0,0,3.46.43q4.93,0,4.93-3.16a2.6,2.6,0,0,0-.56-1.69,4.78,4.78,0,0,0-1.6-1.21,15.35,15.35,0,0,0-2.51-1l-3.29-1a27.86,27.86,0,0,1-3.83-1.32,10,10,0,0,1-2.7-1.69,6.32,6.32,0,0,1-1.62-2.25,7.78,7.78,0,0,1-.54-3,9.54,9.54,0,0,1,.87-4.15,8.39,8.39,0,0,1,2.4-3,10.87,10.87,0,0,1,3.57-1.84,14.75,14.75,0,0,1,4.37-.63,17,17,0,0,1,6,1,22.25,22.25,0,0,1,4.76,2.4Z"/><path d="M1272.74,750.18V729.85L1264.83,745h-3.24l-7.92-15.14v20.33h-6V719.47h6.4l9.08,17.48,9.17-17.48h6.36v30.71Z"/><path class="cls-2" d="M773.59,80.57A71.85,71.85,0,0,1,756.2,75.1c.81-3.09.34-10.88,3-20.09A54.5,54.5,0,0,1,765.31,42c7.29-11.65,22.94-17.43,35-17.43S825.38,33.91,831.57,43s7.72,27.51,7.77,28.65a18,18,0,0,0,.15,2.13,7.24,7.24,0,0,1-1.67,1.68c-2,1.53-7.42,4.33-20.83,6.07A160.86,160.86,0,0,1,773.59,80.57Z"/><path class="cls-2" d="M839.27,85.28a48.38,48.38,0,0,1-12.08,4.24,130.08,130.08,0,0,1-14.85,2.27L796.07,98.9a60.89,60.89,0,0,1-8.56,2.73c-5.12,1.5-39.85-6-44.2-12.82-.81-1.41,1.19-2.89,1.19-2.89s6.34-5,9.59-8A72.44,72.44,0,0,0,773,84,157.18,157.18,0,0,0,799.28,86a144.68,144.68,0,0,0,18.15-1c10.67-1.37,18.44-3.69,22.48-6.72A11.77,11.77,0,0,0,841.33,77a17,17,0,0,0,2.29,2S844.61,82.17,839.27,85.28Z"/><path d="M903.09,55.8A7.4,7.4,0,0,0,902,55,13.49,13.49,0,0,0,900,54a16.86,16.86,0,0,0-2.49-.84,10.87,10.87,0,0,0-2.73-.35,6.11,6.11,0,0,0-3.68.91,3,3,0,0,0-1.21,2.55,2.62,2.62,0,0,0,.45,1.58,3.92,3.92,0,0,0,1.32,1.1,11.06,11.06,0,0,0,2.19.87q1.32.39,3,.82,2.25.61,4.09,1.3a11.1,11.1,0,0,1,3.11,1.73,7.15,7.15,0,0,1,2,2.49,8.25,8.25,0,0,1,.69,3.57,8.88,8.88,0,0,1-.93,4.22,7.81,7.81,0,0,1-2.51,2.83,10.9,10.9,0,0,1-3.63,1.58,18.25,18.25,0,0,1-4.3.5,23.12,23.12,0,0,1-6.83-1,21.08,21.08,0,0,1-6.06-2.94l2.64-5.15a8.31,8.31,0,0,0,1.41,1A21.44,21.44,0,0,0,889,72,18.6,18.6,0,0,0,892.06,73a13.86,13.86,0,0,0,3.46.43q4.93,0,4.93-3.16a2.6,2.6,0,0,0-.56-1.69,4.78,4.78,0,0,0-1.6-1.21,15.35,15.35,0,0,0-2.51-1l-3.29-1a27.85,27.85,0,0,1-3.83-1.32,10,10,0,0,1-2.7-1.69,6.32,6.32,0,0,1-1.62-2.25,7.79,7.79,0,0,1-.54-3,9.54,9.54,0,0,1,.87-4.15,8.38,8.38,0,0,1,2.4-3,10.88,10.88,0,0,1,3.57-1.84,14.76,14.76,0,0,1,4.37-.63,17,17,0,0,1,6,1,22.25,22.25,0,0,1,4.76,2.4Z"/><path d="M919.53,47.76h5.28l11.68,30.71h-6.14l-2.86-7.66H916.76L914,78.47h-6.14Zm6.88,18.86-4.24-12.07-4.41,12.07Z"/><path d="M939.86,78.47V47.76h20.63V53H945.83v7.92H958v4.84h-12.2V78.47Z"/><path d="M986,73.24v5.23H964.69V47.76h20.94V53h-15v7.4h12.93v4.84H970.66v8Z"/><path d="M1013.65,53h-9.82V78.47h-5.93V53h-9.82V47.76h25.56Z"/><path d="M1020.92,47.76l7.57,14.79,7.7-14.79h6.44l-11.16,20V78.47h-5.93V67.66l-11.12-19.9Z"/></g></g></svg>