<svg xmlns="http://www.w3.org/2000/svg" viewBox="0 0 953.15 175.8"><defs><style>.cls-1{fill:#f79524;}</style></defs><title>me-logo-blk</title><g id="Layer_2" data-name="Layer 2"><g id="Layer_1-2" data-name="Layer 1"><path d="M0,80.86V7.94A7,7,0,0,1,2.25,2.3,7.81,7.81,0,0,1,7.41.41a9.82,9.82,0,0,1,3.64.71,9.41,9.41,0,0,1,3.34,2.2L69.27,63.15,124.16,3.32a8.34,8.34,0,0,1,3.28-2.2,10.25,10.25,0,0,1,3.71-.71,7.8,7.8,0,0,1,5.15,1.89,6.92,6.92,0,0,1,2.25,5.65V80.86H123V27L74.86,79.57a7.77,7.77,0,0,1-11.18,0L15.57,27V80.86Z"/><path d="M178.5,80.86a46.43,46.43,0,0,1-12.3-1.39,19.89,19.89,0,0,1-8-4.13,15.8,15.8,0,0,1-4.47-6.77,28.2,28.2,0,0,1-1.39-9.29V23.08a28.26,28.26,0,0,1,1.39-9.29A15.87,15.87,0,0,1,158.16,7a19.78,19.78,0,0,1,8-4.14,46.59,46.59,0,0,1,12.3-1.39h45.44a46.48,46.48,0,0,1,12.23,1.39A19.81,19.81,0,0,1,244.28,7a16.11,16.11,0,0,1,4.46,6.76,28.43,28.43,0,0,1,1.38,9.29V59.27a28.37,28.37,0,0,1-1.38,9.29,16,16,0,0,1-4.46,6.77,19.92,19.92,0,0,1-8.11,4.13,46.31,46.31,0,0,1-12.23,1.39Zm-10.2-22.22a5.66,5.66,0,0,0,2.42,5q2.42,1.65,7.68,1.66H224q5.25,0,7.67-1.66a5.68,5.68,0,0,0,2.41-5V23.73a5.68,5.68,0,0,0-2.41-5q-2.42-1.68-7.67-1.68H178.39q-5.26,0-7.68,1.68a5.65,5.65,0,0,0-2.42,5Z"/><path d="M263.88,80.86V8.36a7.66,7.66,0,0,1,2.2-5.85,7.17,7.17,0,0,1,5.1-2.11,8.93,8.93,0,0,1,2.68.45,7.39,7.39,0,0,1,2.59,1.4l69.7,56.17V1.49h15.58V74a7.74,7.74,0,0,1-2.21,5.86,7.24,7.24,0,0,1-5.09,2.09,9.14,9.14,0,0,1-2.69-.44,7.31,7.31,0,0,1-2.58-1.39l-69.7-56.18V80.86Z"/><path d="M413.07,80.86V17.06H371.93V1.49h97.84V17.06H428.64v63.8Z"/><path d="M504.46,80.86a46.26,46.26,0,0,1-12.28-1.39,20.15,20.15,0,0,1-8.06-4.13,16,16,0,0,1-4.46-6.77,28.79,28.79,0,0,1-1.38-9.29V23.08a28.85,28.85,0,0,1,1.38-9.29A16.06,16.06,0,0,1,484.12,7a20,20,0,0,1,8.06-4.14,46.42,46.42,0,0,1,12.28-1.39h45.46a46.43,46.43,0,0,1,12.22,1.39A19.79,19.79,0,0,1,570.25,7a16,16,0,0,1,4.46,6.76,28.35,28.35,0,0,1,1.41,9.29V59.27a28.29,28.29,0,0,1-1.41,9.29,15.89,15.89,0,0,1-4.46,6.77,19.89,19.89,0,0,1-8.12,4.13,46.26,46.26,0,0,1-12.22,1.39ZM494.28,58.64a5.66,5.66,0,0,0,2.41,5c1.6,1.1,4.17,1.66,7.67,1.66H550q5.26,0,7.68-1.66a5.64,5.64,0,0,0,2.42-5V23.73a5.64,5.64,0,0,0-2.42-5q-2.42-1.68-7.68-1.68H504.36c-3.51,0-6.07.56-7.67,1.68a5.66,5.66,0,0,0-2.41,5Z"/><path d="M695,80.86V28.46q0-13,7.52-20t23.08-7h36.62q15.58,0,23.1,7t7.52,20v52.4H777.27V55.52H710.57V80.86ZM710.57,41h66.7V28.46a15.86,15.86,0,0,0-.7-5,7.56,7.56,0,0,0-2.49-3.55,11.35,11.35,0,0,0-4.64-2.15,32.13,32.13,0,0,0-7.32-.7H725.7a32,32,0,0,0-7.3.7,11.44,11.44,0,0,0-4.66,2.15,7.72,7.72,0,0,0-2.47,3.55,15.42,15.42,0,0,0-.69,5Z"/><path d="M670.53,1.88V31.79a5.22,5.22,0,0,1-2.29,4.63c-1.55,1-3.93,1.55-7.27,1.55H612.28c-3.31,0-5.76-.51-7.28-1.55a5.21,5.21,0,0,1-2.27-4.62V1.88H587.56V31.41A25.59,25.59,0,0,0,588.88,40a15,15,0,0,0,4.23,6.25,18.82,18.82,0,0,0,7.62,3.83,44.9,44.9,0,0,0,10.65,1.24h16.9V80.86h16.65V51.32h16.94a44.82,44.82,0,0,0,10.65-1.24,18.9,18.9,0,0,0,7.62-3.83A14.52,14.52,0,0,0,684.36,40a25.58,25.58,0,0,0,1.32-8.59V1.88Z"/><path d="M132.52,118.18v21.45h32v6h-32v23.53h33.35v6H125.41v-63h40.46v6Z"/><path d="M182.11,112.18v56.37h32.38v6.6H175v-63Z"/><path d="M229.16,118.18v21.45h32v6h-32v23.53h33.35v6H222.06v-63h40.45v6Z"/><path d="M312.93,154.12H320v2.4q0,12.87-4.38,16.07t-22,3.21q-15.82,0-20.11-5.65t-4.29-26.59q0-16.38,1-20.6t5.54-7.54q5.35-3.88,23.11-3.88,12,0,16.22,3.74t4.17,14.44l.05,1.71h-7.06l0-1.94q0-7.62-2.47-9.78t-11.14-2.17q-15.22,0-18.59,2.54t-3.37,14.07q0,26.53,2.26,31.09t15.45,4.57q12.55,0,15.66-2t3.11-10Z"/><path d="M350,118.78v56.37h-7.1V118.78H322.34v-6.6h48v6.6Z"/><path d="M374.74,175.16v-63h30q10.15,0,14.3,4t4.15,13.93q0,8.71-2.26,12.15t-8.63,4.46v.14q10,.74,10,12.18v16.1h-7.1V160.67q0-11-9.55-11h-23.8v25.51Zm7.11-31.51h20.52q8.12,0,11.07-2.47t3-9.29q0-8.53-2.19-11.12t-9.39-2.58h-23Z"/><path d="M438.82,112.18v63h-7.1v-63Z"/><path d="M492.25,154.12h7v2.4q0,12.87-4.38,16.07t-22,3.21q-15.82,0-20.11-5.65t-4.29-26.59q0-16.38,1-20.6t5.53-7.54q5.36-3.88,23.12-3.88,12,0,16.21,3.74t4.18,14.44l0,1.71h-7.06l0-1.94q0-7.62-2.47-9.78t-11.14-2.17q-15.23,0-18.59,2.54t-3.37,14.07q0,26.53,2.26,31.09t15.45,4.57q12.54,0,15.67-2t3.11-10Z"/><path d="M538.05,112.18v56.37h32.38v6.6H530.95v-63Z"/><path d="M583.86,112.18v56.37h32.38v6.6H576.75v-63Z"/><path d="M662,154.12H669v2.4q0,12.87-4.39,16.07t-22,3.21q-15.82,0-20.11-5.65t-4.29-26.59q0-16.38,1-20.6t5.53-7.54q5.36-3.88,23.11-3.88,12,0,16.22,3.74t4.18,14.44l0,1.71h-7.06l0-1.94q0-7.62-2.47-9.78t-11.14-2.17q-15.23,0-18.59,2.54t-3.37,14.07q0,26.53,2.26,31.09t15.45,4.57q12.54,0,15.66-2t3.11-10Z"/></g><g id="Layer_2-2" data-name="Layer 2"><path d="M911.44,137.77H883.21c-7.54,0-15.66-6-15.66-19V103.11c-4.75-3.42-23.48-18.33-25.82-41.43-1.52-15.06,4.28-31.88,15.14-43.89a54.87,54.87,0,0,1,80.89,0c10.86,12,16.66,28.83,15.14,43.89-2.34,23.1-21.07,38-25.82,41.43v15.61C927.1,131.72,917.75,137.77,911.44,137.77ZM897.32,4.7a48.53,48.53,0,0,0-37,16.25c-10,11.06-15.35,26.49-14,40.27C848.8,84.87,871,99.78,871.19,99.93l1.05.69v18.1c0,10.59,5.9,14.35,11,14.35h28.23c4.6,0,11-5,11-14.35V100.63l1.05-.7c.22-.15,22.39-15.06,24.79-38.72,1.39-13.78-4-29.21-14-40.27A48.53,48.53,0,0,0,897.32,4.7Z"/><path d="M912.67,149.51a3.92,3.92,0,0,1-3.91,3.92h-26.1a3.92,3.92,0,0,1-3.91-3.92h0a3.91,3.91,0,0,1,3.91-3.91h26.1a3.91,3.91,0,0,1,3.91,3.91Z"/><path d="M912.67,160.73a3.91,3.91,0,0,1-3.91,3.92h-26.1a3.91,3.91,0,0,1-3.91-3.92h0a3.91,3.91,0,0,1,3.91-3.91h26.1a3.91,3.91,0,0,1,3.91,3.91Z"/><path d="M908.71,171.82a3,3,0,0,1-3,3h-20a3,3,0,0,1-3-3h0a3,3,0,0,1,3-3h20a3,3,0,0,1,3,3Z"/><polygon class="cls-1" points="891.25 133.15 875.86 87.39 876.01 75.52 883.5 76.18 883.5 60.82 896.77 75.38 910.61 60.63 910.61 77.01 918.96 77.06 920.22 86.82 903.32 133.11 906.52 133.1 921.86 88.5 923.25 76.24 923.25 68.36 915.8 69.71 915.61 47.22 896.77 67.21 878.7 47.22 878.7 68.31 871.39 67.21 873.51 87.39 888.7 133.15 891.25 133.15"/></g></g></svg>